HIERARCHY
ROOT Hips
{
	OFFSET 0.000000 88.474243 0.000000
	CHANNELS 6 Xposition Yposition Zposition Zrotation Yrotation Xrotation 
	JOINT Hips_Spine
	{
		OFFSET 0.000000 0.000000 0.000000
		CHANNELS 3 Zrotation Yrotation Xrotation
		JOINT Spine
		{
			OFFSET 0.005100 8.711998 -0.691000
			CHANNELS 3 Zrotation Yrotation Xrotation
			JOINT Spine1
			{
				OFFSET -0.009200 8.660301 -1.275000
				CHANNELS 3 Zrotation Yrotation Xrotation
				JOINT Spine2
				{
					OFFSET 0.006300 9.852501 -1.857000
					CHANNELS 3 Zrotation Yrotation Xrotation
					JOINT Spine2_Neck
					{
						OFFSET 0.000000 0.000000 0.000000
						CHANNELS 3 Zrotation Yrotation Xrotation
						JOINT Neck
						{
							OFFSET 0.016300 11.420799 -0.263300
							CHANNELS 3 Zrotation Yrotation Xrotation
							End Site #name: Head
							{
								OFFSET -0.019200 9.262405 2.362500
							}
						}
					}
					JOINT Spine2_LeftShoulder
					{
						OFFSET 0.000000 0.000000 0.000000
						CHANNELS 3 Zrotation Yrotation Xrotation
						JOINT LeftShoulder
						{
							OFFSET 5.616900 6.732201 -0.345700
							CHANNELS 3 Zrotation Yrotation Xrotation
							JOINT LeftArm
							{
								OFFSET 10.664888 -0.183372 -2.440700
								CHANNELS 3 Zrotation Yrotation Xrotation
								JOINT LeftForeArm
								{
									OFFSET 27.459126 0.000000 0.000000
									CHANNELS 3 Zrotation Yrotation Xrotation
									End Site #name: LeftHand
									{
										OFFSET 21.306858 0.000000 0.000000
									}
								}
							}
						}
					}
					JOINT Spine2_RightShoulder
					{
						OFFSET 0.000000 0.000000 0.000000
						CHANNELS 3 Zrotation Yrotation Xrotation
						JOINT RightShoulder
						{
							OFFSET -5.580300 6.737503 -0.344400
							CHANNELS 3 Zrotation Yrotation Xrotation
							JOINT RightArm
							{
								OFFSET -10.679335 -0.188484 -2.383900
								CHANNELS 3 Zrotation Yrotation Xrotation
								JOINT RightForeArm
								{
									OFFSET -27.503529 0.000000 0.000000
									CHANNELS 3 Zrotation Yrotation Xrotation
									End Site #name: RightHand
									{
										OFFSET -21.306808 0.000000 0.000000
									}
								}
							}
						}
					}
				}
			}
		}
	}
	JOINT Hips_LeftUpLeg
	{
		OFFSET 0.000000 0.000000 0.000000
		CHANNELS 3 Zrotation Yrotation Xrotation
		JOINT LeftUpLeg
		{
			OFFSET 6.857700 -6.739601 0.312100
			CHANNELS 3 Zrotation Yrotation Xrotation
			JOINT LeftLeg
			{
				OFFSET -0.367590 -34.731552 -4.572400
				CHANNELS 3 Zrotation Yrotation Xrotation
				End Site #name: LeftFoot
				{
					OFFSET 0.367590 -34.656704 -6.067400
				}
			}
		}
	}
	JOINT Hips_RightUpLeg
	{
		OFFSET 0.000000 0.000000 0.000000
		CHANNELS 3 Zrotation Yrotation Xrotation
		JOINT RightUpLeg
		{
			OFFSET -6.876100 -6.733299 0.301000
			CHANNELS 3 Zrotation Yrotation Xrotation
			JOINT RightLeg
			{
				OFFSET 0.347353 -34.795158 -4.515900
				CHANNELS 3 Zrotation Yrotation Xrotation
				End Site #name: RightFoot
				{
					OFFSET -0.347353 -34.589367 -6.070300
				}
			}
		}
	}
}
MOTION
Frames: 7
Frame Time: 0.041667
0.067453 0.041828 -0.011224 -4.285483 -8.832118 13.989725 -0.000000 -0.000000 0.000000 3.798742 0.922251 17.545303 1.261251 -0.396284 13.169374 0.000000 0.000000 0.000000 0.746002 -0.227935 15.987276 1.157827 -0.844529 0.262444 1.213438 -0.231683 13.891666 5.931123 -13.003542 0.318259 2.177571 -44.809771 -40.829681 1.530304 -12.303761 0.210753 1.090905 0.278669 12.797741 8.967951 7.176530 3.604725 20.246399 59.331453 15.536467 -1.484532 30.464049 2.273605 0.000000 0.000000 0.000000 2.269369 7.812211 -70.078252 0.516229 -7.604045 62.962499 -0.000000 0.000000 -0.000000 9.496679 -7.486249 -79.145331 0.950230 4.038883 61.834404 
0.077986 0.137613 0.009644 -5.050881 -7.555385 19.007392 -0.000000 -0.000000 0.000000 2.808114 -0.257039 16.477248 1.027855 -0.229026 13.139141 0.000000 0.000000 0.000000 1.051612 0.011861 13.564214 -0.568076 -0.016711 1.476175 1.334732 -0.616229 12.827668 -2.259756 -14.575526 1.945543 3.916199 -59.393435 -36.630718 0.033656 -26.926750 -0.344056 1.030211 -0.221132 12.556205 8.322827 9.591090 3.115736 -3.472818 59.811776 -8.828782 0.211961 32.546167 0.397750 0.000000 0.000000 -0.000000 2.159858 8.260228 -73.655207 0.166819 -5.687778 60.772751 -0.000000 0.000000 -0.000000 11.046709 -5.319620 -83.678872 2.463579 4.897648 58.359799 
0.080645 0.141030 -0.017178 -4.901580 -7.171824 19.980629 -0.000000 -0.000000 -0.000000 2.080568 -0.544209 14.781526 1.098956 -0.131011 12.749185 0.000000 0.000000 0.000000 1.094515 -0.022053 12.917456 -1.322770 -0.241953 0.184477 1.232355 -0.230703 12.146021 -2.033122 -14.924010 2.196558 5.317876 -63.229608 -35.844086 -0.075004 -32.807682 -0.449913 1.114414 -0.145804 11.618102 7.878152 11.194120 2.875613 1.301902 62.808103 -1.092804 0.335751 35.636980 0.168529 0.000000 0.000000 -0.000000 1.886564 7.778209 -74.701765 -0.796755 -5.384350 60.518681 -0.000000 0.000000 -0.000000 10.701201 -5.569932 -84.095364 2.653601 4.655046 57.568418 
0.086704 0.123519 -0.047822 -4.814641 -7.582747 20.124064 -0.000000 -0.000000 -0.000000 1.610842 -0.596856 14.566899 0.921926 0.001726 12.534659 0.000000 0.000000 0.000000 0.939374 0.317111 12.320074 -1.299718 0.102045 -0.240422 1.017076 -0.015419 11.783518 -1.268543 -16.630179 2.079309 12.439208 -66.901622 -40.481755 -0.101766 -32.250959 -0.494743 1.063834 -0.033300 11.232837 8.851653 10.958996 3.028476 3.451622 63.343539 1.712964 0.304542 37.877105 0.032186 -0.000000 0.000000 -0.000000 1.790856 7.637393 -74.896403 -0.501459 -4.931989 60.442502 -0.000000 0.000000 -0.000000 10.333859 -5.541440 -84.640602 2.382195 4.083785 58.035228 
0.114445 0.113397 -0.068737 -4.908161 -7.865374 20.115614 -0.000000 -0.000000 -0.000000 1.544303 -0.520410 15.951269 0.717209 -0.010882 12.134412 0.000000 0.000000 0.000000 0.683077 0.312549 11.999787 -1.054735 0.348009 0.144093 0.733271 -0.033645 11.426522 -2.145459 -16.949234 2.177589 12.638979 -69.751729 -38.276640 -0.021617 -31.801098 -0.535766 0.864346 -0.064200 10.936920 9.506849 10.709800 3.207519 2.191547 62.835790 3.375416 0.221277 37.338446 -0.042975 -0.000000 0.000000 -0.000000 1.773260 7.702454 -74.821572 -0.337159 -4.660288 60.403918 -0.000000 0.000000 -0.000000 10.365852 -5.587818 -84.587394 2.407532 3.872168 58.010852 
0.157350 0.101499 -0.080596 -5.076954 -7.896722 20.122032 -0.000000 -0.000000 0.000000 1.700385 -0.428483 17.264527 0.561556 -0.025213 11.615936 0.000000 0.000000 0.000000 0.469495 0.214036 11.664673 -0.867646 0.529135 0.818612 0.541468 -0.061589 11.034043 -2.792070 -17.439350 2.275152 11.142382 -70.815949 -35.206739 0.026066 -31.714781 -0.497228 0.642722 -0.078493 10.531254 9.663785 10.646999 3.284445 0.629874 61.974823 3.214650 0.195236 35.614039 -0.088445 -0.000000 0.000000 -0.000000 1.846361 7.674960 -74.813235 -0.233147 -4.559740 60.417850 -0.000000 0.000000 -0.000000 10.656382 -5.789033 -84.542769 2.445581 3.823171 57.699223 
0.208472 0.088319 -0.088460 -5.214592 -7.724191 20.179706 -0.000000 -0.000000 0.000000 1.771001 -0.350884 17.844153 0.491094 -0.006587 11.315113 0.000000 0.000000 0.000000 0.373152 0.190917 11.365423 -0.840488 0.575852 1.336759 0.454900 -0.058594 10.789096 -3.086633 -17.536677 2.330874 12.170337 -71.309774 -35.240258 0.018254 -31.849000 -0.396944 0.514568 -0.082785 10.212153 9.680041 10.787340 3.341484 -1.512268 62.455016 1.725493 0.150653 34.478264 -0.088560 -0.000000 0.000000 -0.000000 1.879906 7.569403 -74.983114 -0.258053 -4.580263 60.526680 -0.000000 0.000000 -0.000000 10.923765 -5.981897 -84.696376 2.419564 3.792736 57.523545 
